Coordinates
version=1
nRows=57
nColumns=19
inDegrees=yes

Units are S.I. units (second, meters, Newtons, ...)
Angles are in degrees.

endheader
time	1_Force_X	1_Force_Y	1_Force_Z	1_Moment_X	1_Moment_Y	1_Moment_Z	1_COP_X	1_COP_Y	1_COP_Z	2_Force_X	2_Force_Y	2_Force_Z	2_Moment_X	2_Moment_Y	2_Moment_Z	2_COP_X	2_COP_Y	2_COP_Z
0.0075	-25.450	370.730	-1.224	-0.297	0.000	0.581	25.216	405.785	-4.216	-0.352	0.000	0.186	0.00000	1.98603	0.00000	0.00000	1.64218	0.00000
0.0100	-25.138	369.336	-0.915	-0.297	0.000	0.582	25.259	404.414	-3.913	-0.352	0.000	0.186	0.00000	1.96960	0.00000	0.00000	1.72344	0.00000
0.0125	-25.186	370.896	-1.229	-0.297	0.000	0.582	25.128	403.555	-3.958	-0.352	0.000	0.187	0.00000	1.99149	0.00000	0.00000	1.76044	0.00000
0.0150	-25.446	370.384	-1.092	-0.297	0.000	0.582	25.172	404.925	-4.260	-0.352	0.000	0.187	0.00000	2.02391	0.00000	0.00000	1.62353	0.00000
0.0175	-25.580	372.115	-1.010	-0.297	0.000	0.582	24.955	403.895	-4.395	-0.352	0.000	0.187	0.00000	1.97074	0.00000	0.00000	1.69570	0.00000
0.0200	-25.444	372.115	-0.658	-0.297	0.000	0.582	25.129	404.066	-4.350	-0.352	0.000	0.187	0.00000	1.94980	0.00000	0.00000	1.64708	0.00000
0.0225	-25.190	371.409	-1.056	-0.297	0.000	0.583	25.082	402.696	-3.875	-0.352	0.000	0.186	0.00000	1.98668	0.00000	0.00000	1.71934	0.00000
0.0250	-25.225	371.758	-0.794	-0.297	0.000	0.583	25.040	401.665	-4.052	-0.352	0.000	0.187	0.00000	1.90181	0.00000	0.00000	1.75892	0.00000
0.0275	-25.317	372.798	-0.707	-0.297	0.000	0.583	25.172	401.661	-4.402	-0.352	0.000	0.187	0.00000	1.93742	0.00000	0.00000	1.70497	0.00000
0.0300	-25.361	372.276	-0.751	-0.297	0.000	0.583	25.171	401.491	-4.183	-0.353	0.000	0.187	0.00000	1.95060	0.00000	0.00000	1.71610	0.00000
0.0325	-25.410	373.831	-0.933	-0.297	0.000	0.583	24.864	400.461	-4.144	-0.352	0.000	0.187	0.00000	1.91359	0.00000	0.00000	1.74873	0.00000
0.0350	-25.713	374.362	-0.710	-0.297	0.000	0.583	24.561	401.488	-4.492	-0.352	0.000	0.187	0.00000	1.92194	0.00000	0.00000	1.70023	0.00000
0.0375	-25.893	376.094	-0.803	-0.297	0.000	0.583	24.473	399.768	-4.672	-0.352	0.000	0.187	0.00000	1.88053	0.00000	0.00000	1.68526	0.00000
0.0400	-25.717	376.090	-1.070	-0.297	0.000	0.583	24.519	399.939	-4.978	-0.352	0.000	0.187	0.00000	1.85553	0.00000	0.00000	1.70430	0.00000
0.0425	-26.070	376.789	-0.672	-0.297	0.000	0.583	24.428	399.770	-4.498	-0.352	0.000	0.187	0.00000	1.93101	0.00000	0.00000	1.68334	0.00000
0.0450	-26.111	376.792	-0.583	-0.297	0.000	0.583	24.255	399.081	-4.760	-0.352	0.000	0.188	0.00000	1.90216	0.00000	0.00000	1.70666	0.00000
0.0475	-26.071	377.826	-1.073	-0.297	0.000	0.583	24.299	398.565	-4.762	-0.352	0.000	0.187	0.00000	1.84814	0.00000	0.00000	1.70894	0.00000
0.0500	-25.763	376.085	-0.896	-0.297	0.000	0.584	24.428	397.539	-4.417	-0.352	0.000	0.187	0.00000	1.89507	0.00000	0.00000	1.79358	0.00000
0.0525	-26.030	377.648	-1.074	-0.297	0.000	0.583	24.340	396.506	-4.417	-0.352	0.000	0.188	0.00000	1.85437	0.00000	0.00000	1.74960	0.00000
0.0550	-25.809	377.820	-0.987	-0.297	0.000	0.583	23.989	395.993	-4.335	-0.352	0.000	0.188	0.00000	1.85439	0.00000	0.00000	1.78075	0.00000
0.0575	-26.207	378.003	-1.116	-0.297	0.000	0.583	23.948	396.846	-4.813	-0.352	0.000	0.188	0.00000	1.90608	0.00000	0.00000	1.70406	0.00000
0.0600	-25.985	378.695	-0.986	-0.297	0.000	0.582	23.819	396.844	-5.032	-0.352	0.000	0.188	0.00000	1.86563	0.00000	0.00000	1.70664	0.00000
0.0625	-25.939	378.170	-1.031	-0.297	0.000	0.583	23.905	396.670	-5.164	-0.352	0.000	0.188	0.00000	1.81360	0.00000	0.00000	1.63524	0.00000
0.0650	-26.120	377.304	-1.116	-0.297	0.000	0.583	23.733	396.498	-5.383	-0.352	0.000	0.188	0.00000	1.92412	0.00000	0.00000	1.68675	0.00000
0.0675	-25.898	377.996	-1.207	-0.297	0.000	0.583	23.688	395.812	-5.342	-0.352	0.000	0.188	0.00000	1.83225	0.00000	0.00000	1.70883	0.00000
0.0700	-25.854	377.992	-1.032	-0.297	0.000	0.583	23.820	394.610	-5.345	-0.352	0.000	0.188	0.00000	1.82524	0.00000	0.00000	1.75134	0.00000
0.0725	-25.810	377.640	-1.387	-0.297	0.000	0.583	23.428	394.781	-5.433	-0.352	0.000	0.188	0.00000	1.78036	0.00000	0.00000	1.78461	0.00000
0.0750	-25.859	378.336	-1.386	-0.297	0.000	0.583	23.557	394.093	-5.303	-0.352	0.000	0.188	0.00000	1.82131	0.00000	0.00000	1.74400	0.00000
0.0775	-25.590	377.470	-1.429	-0.297	0.000	0.583	23.603	394.606	-5.652	-0.352	0.000	0.188	0.00000	1.81279	0.00000	0.00000	1.72572	0.00000
0.0800	-25.724	377.984	-1.212	-0.297	0.000	0.584	23.604	394.260	-5.914	-0.352	0.000	0.188	0.00000	1.79782	0.00000	0.00000	1.69862	0.00000
0.0825	-25.545	376.772	-1.297	-0.297	0.000	0.583	23.473	393.918	-5.828	-0.352	0.000	0.188	0.00000	1.78777	0.00000	0.00000	1.73804	0.00000
0.0850	-25.722	378.168	-1.297	-0.297	0.000	0.583	22.909	393.738	-6.663	-0.352	0.000	0.188	0.00000	1.80823	0.00000	0.00000	1.66840	0.00000
0.0875	-25.196	376.248	-1.827	-0.297	0.000	0.583	23.344	393.055	-6.180	-0.352	0.000	0.188	0.00000	1.77405	0.00000	0.00000	1.72148	0.00000
0.0900	-25.460	376.591	-1.697	-0.297	0.000	0.584	23.170	392.881	-6.488	-0.352	0.000	0.188	0.00000	1.78337	0.00000	0.00000	1.71094	0.00000
0.0925	-25.280	375.384	-1.559	-0.297	0.000	0.583	23.083	393.568	-6.443	-0.352	0.000	0.188	0.00000	1.79064	0.00000	0.00000	1.67860	0.00000
0.0950	-25.457	377.472	-1.606	-0.297	0.000	0.583	22.954	393.909	-6.880	-0.352	0.000	0.188	0.00000	1.82396	0.00000	0.00000	1.66904	0.00000
0.0975	-25.370	377.471	-1.517	-0.297	0.000	0.583	22.603	393.046	-6.841	-0.352	0.000	0.189	0.00000	1.82115	0.00000	0.00000	1.59661	0.00000
0.1000	-25.107	375.903	-1.561	-0.297	0.000	0.584	22.953	393.222	-6.663	-0.352	0.000	0.188	0.00000	1.84159	0.00000	0.00000	1.68597	0.00000
0.1025	-25.190	375.553	-1.475	-0.297	0.000	0.584	22.910	392.706	-6.752	-0.352	0.000	0.189	0.00000	1.76435	0.00000	0.00000	1.66571	0.00000
0.1050	-25.062	375.899	-1.474	-0.297	0.000	0.584	22.824	393.219	-7.012	-0.352	0.000	0.189	0.00000	1.80023	0.00000	0.00000	1.65927	0.00000
0.1075	-25.153	376.238	-1.699	-0.297	0.000	0.584	22.608	393.217	-7.363	-0.352	0.000	0.189	0.00000	1.76622	0.00000	0.00000	1.68193	0.00000
0.1100	-25.149	376.592	-1.389	-0.297	0.000	0.584	22.606	393.046	-7.144	-0.352	0.000	0.189	0.00000	1.77434	0.00000	0.00000	1.65350	0.00000
0.1125	-25.417	378.332	-1.523	-0.297	0.000	0.584	22.566	393.898	-7.755	-0.352	0.000	0.189	0.00000	1.82326	0.00000	0.00000	1.56284	0.00000
0.1150	-25.635	377.640	-1.565	-0.297	0.000	0.584	22.302	393.041	-7.583	-0.352	0.000	0.189	0.00000	1.82787	0.00000	0.00000	1.57727	0.00000
0.1175	-25.460	377.639	-1.565	-0.297	0.000	0.584	22.608	393.038	-7.667	-0.352	0.000	0.189	0.00000	1.85725	0.00000	0.00000	1.50390	0.00000
0.1200	-25.592	378.676	-1.526	-0.297	0.000	0.584	22.214	392.179	-7.805	-0.351	0.000	0.189	0.00000	1.80775	0.00000	0.00000	1.52975	0.00000
0.1225	-25.639	379.717	-1.660	-0.297	0.000	0.584	22.521	392.521	-7.799	-0.352	0.000	0.190	0.00000	1.78983	0.00000	0.00000	1.49657	0.00000
0.1250	-25.816	379.719	-1.704	-0.297	0.000	0.584	22.391	392.693	-7.887	-0.352	0.000	0.190	0.00000	1.83161	0.00000	0.00000	1.52102	0.00000
0.1275	-25.554	379.361	-1.840	-0.297	0.000	0.585	22.652	391.666	-7.626	-0.352	0.000	0.189	0.00000	1.79039	0.00000	0.00000	1.60202	0.00000
0.1300	-25.510	379.705	-1.930	-0.297	0.000	0.585	22.737	391.493	-7.407	-0.352	0.000	0.190	0.00000	1.75871	0.00000	0.00000	1.51114	0.00000
0.1325	-26.128	381.625	-1.973	-0.297	0.000	0.584	22.392	393.551	-8.056	-0.351	0.000	0.190	0.00000	1.79994	0.00000	0.00000	1.50308	0.00000
0.1350	-25.864	381.969	-1.887	-0.297	0.000	0.584	22.479	391.317	-8.063	-0.352	0.000	0.190	0.00000	1.79067	0.00000	0.00000	1.51499	0.00000
0.1375	-26.085	382.314	-1.800	-0.297	0.000	0.584	22.435	391.830	-8.147	-0.352	0.000	0.190	0.00000	1.77519	0.00000	0.00000	1.46528	0.00000
0.1400	-26.179	382.659	-2.109	-0.297	0.000	0.584	22.479	391.315	-8.192	-0.352	0.000	0.190	0.00000	1.78722	0.00000	0.00000	1.47008	0.00000
0.1425	-26.087	382.311	-2.022	-0.297	0.000	0.585	22.217	391.658	-8.146	-0.352	0.000	0.191	0.00000	1.77503	0.00000	0.00000	1.48668	0.00000
0.1450	-26.310	383.174	-2.113	-0.297	0.000	0.585	22.437	391.657	-8.275	-0.352	0.000	0.191	0.00000	1.74097	0.00000	0.00000	1.47314	0.00000
0.1475	-26.268	382.298	-2.247	-0.297	0.000	0.585	22.611	391.489	-8.056	-0.352	0.000	0.191	0.00000	1.72489	0.00000	0.00000	1.53041	0.00000
